<svg height="512pt" viewBox="-15 0 511 512" width="512pt" xmlns="http://www.w3.org/2000/svg"><path d="m206.644531 40.664062v430.671876c0 18.316406 14.847657 33.164062 33.167969 33.164062h200.085938c18.316406 0 33.164062-14.847656 33.164062-33.164062v-430.671876c0-18.316406-14.847656-33.164062-33.164062-33.164062h-200.085938c-18.316406 0-33.167969 14.847656-33.167969 33.164062zm0 0" fill="#6a7193"/><path d="m439.898438 7.5h-22.371094c18.316406 0 33.164062 14.847656 33.164062 33.164062v430.671876c0 18.316406-14.847656 33.164062-33.164062 33.164062h22.371094c18.316406 0 33.164062-14.847656 33.164062-33.164062v-430.671876c0-18.316406-14.847656-33.164062-33.164062-33.164062zm0 0" fill="#575b7a"/><path d="m206.644531 81.652344h266.417969v348.695312h-266.417969zm0 0" fill="#c8e7f7"/><path d="m450.691406 81.652344h22.371094v348.695312h-22.371094zm0 0" fill="#8cbcd6"/><path d="m355.371094 467.425781c0 8.566407-6.949219 15.511719-15.515625 15.511719-8.570313 0-15.515625-6.945312-15.515625-15.511719 0-8.570312 6.945312-15.515625 15.515625-15.515625 8.566406 0 15.515625 6.945313 15.515625 15.515625zm0 0" fill="#252d4c"/><path d="m159.183594 199.691406c-12.300782-12.5625-19.1875-29.445312-19.1875-47.027344v-36.933593c0-4.058594-3.289063-7.347657-7.347656-7.347657h-73.820313c-4.054687 0-7.34375 3.289063-7.34375 7.347657v36.9375c0 17.578125-6.886719 34.460937-19.1875 47.023437l-4.808594 4.910156h136.503907zm0 0" fill="#e9e9ea"/><path d="m159.183594 413.191406c-12.300782 12.5625-19.1875 29.445313-19.1875 47.027344v36.9375c0 4.054688-3.289063 7.34375-7.347656 7.34375h-73.820313c-4.054687 0-7.34375-3.289062-7.34375-7.34375v-36.9375c0-17.582031-6.886719-34.464844-19.1875-47.023438l-4.808594-4.910156h136.503907zm0 0" fill="#e9e9ea"/><g fill="#c5c4cc"><path d="m159.183594 199.691406c-12.300782-12.5625-19.1875-29.445312-19.1875-47.027344v-36.9375c0-4.054687-3.289063-7.34375-7.347656-7.34375h-23.828126c4.058594 0 7.34375 3.289063 7.34375 7.34375v36.9375c0 17.582032 6.890626 34.464844 19.191407 47.027344l4.808593 4.910156h23.828126zm0 0"/><path d="m140.164062 408.285156-4.808593 4.910156c-12.300781 12.5625-19.191407 29.441407-19.191407 47.023438v36.9375c0 4.058594-3.285156 7.34375-7.34375 7.34375h23.828126c4.058593 0 7.347656-3.285156 7.347656-7.34375v-36.9375c0-17.582031 6.886718-34.460938 19.1875-47.023438l4.808594-4.910156zm0 0"/><path d="m163.992188 408.28125h-136.503907l4.808594 4.914062c6.804687 6.945313 11.941406 15.21875 15.183594 24.199219h96.519531c3.242188-8.980469 8.382812-17.253906 15.183594-24.199219zm0 0"/></g><path d="m8 215.375v182.132812c0 9.574219 7.761719 17.335938 17.332031 17.335938h140.816407c9.574218 0 17.332031-7.761719 17.332031-17.335938v-182.132812c0-9.570312-7.757813-17.332031-17.332031-17.332031h-140.816407c-9.570312 0-17.332031 7.761719-17.332031 17.332031zm0 0" fill="#575b7a"/><path d="m40.871094 250.941406v13.226563c0 6.828125 5.535156 12.363281 12.367187 12.363281h13.226563c6.828125 0 12.363281-5.535156 12.363281-12.363281v-13.226563c0-6.832031-5.535156-12.367187-12.363281-12.367187h-13.226563c-6.832031 0-12.367187 5.535156-12.367187 12.367187zm0 0" fill="#8cbafa"/><path d="m112.652344 250.941406v13.226563c0 6.828125 5.535156 12.363281 12.363281 12.363281h13.226563c6.832031 0 12.367187-5.535156 12.367187-12.363281v-13.226563c0-6.832031-5.535156-12.367187-12.367187-12.367187h-13.226563c-6.828125 0-12.363281 5.535156-12.363281 12.367187zm0 0" fill="#c9ea6e"/><path d="m40.871094 337.574219v13.230469c0 6.828124 5.535156 12.363281 12.367187 12.363281h13.226563c6.828125 0 12.363281-5.535157 12.363281-12.363281v-13.230469c0-6.828125-5.535156-12.363281-12.363281-12.363281h-13.226563c-6.832031 0-12.367187 5.535156-12.367187 12.363281zm0 0" fill="#ffcd34"/><path d="m112.652344 337.574219v13.230469c0 6.828124 5.535156 12.363281 12.363281 12.363281h13.226563c6.832031 0 12.367187-5.535157 12.367187-12.363281v-13.230469c0-6.828125-5.535156-12.363281-12.367187-12.363281h-13.226563c-6.828125 0-12.363281 5.535156-12.363281 12.363281zm0 0" fill="#ff76a4"/><path d="m199.152344 334.652344h-15.671875v-56.421875h15.671875c8.601562 0 15.570312 6.972656 15.570312 15.574219v25.277343c0 8.597657-6.96875 15.570313-15.570312 15.570313zm0 0" fill="#8cbafa"/><path d="m339.855469 444.40625c-12.691407 0-23.015625 10.328125-23.015625 23.019531 0 12.6875 10.324218 23.011719 23.015625 23.011719 12.691406 0 23.015625-10.324219 23.015625-23.011719 0-12.691406-10.324219-23.019531-23.015625-23.019531zm0 31.03125c-4.417969 0-8.015625-3.59375-8.015625-8.015625 0-4.417969 3.597656-8.015625 8.015625-8.015625s8.015625 3.597656 8.015625 8.015625c0 4.421875-3.597656 8.015625-8.015625 8.015625zm0 0"/><path d="m362.085938 37.074219h-44.464844c-4.140625 0-7.5 3.359375-7.5 7.5 0 4.144531 3.359375 7.5 7.5 7.5h44.464844c4.140624 0 7.5-3.355469 7.5-7.5 0-4.140625-3.359376-7.5-7.5-7.5zm0 0"/><path d="m439.898438 0h-200.085938c-22.425781 0-40.667969 18.242188-40.667969 40.664062v214.9375c0 4.144532 3.359375 7.5 7.5 7.5 4.144531 0 7.5-3.355468 7.5-7.5v-166.449218h251.417969v26.878906c0 4.140625 3.359375 7.5 7.5 7.5s7.5-3.359375 7.5-7.5v-75.367188c0-22.421874-18.242188-40.664062-40.664062-40.664062zm-225.753907 74.152344v-33.488282c0-14.148437 11.515625-25.664062 25.667969-25.664062h200.085938c14.152343 0 25.664062 11.515625 25.664062 25.664062v33.488282zm0 0"/><path d="m473.0625 140.710938c-4.140625 0-7.5 3.355468-7.5 7.5v274.636718h-251.417969v-54.410156c0-4.144531-3.355469-7.5-7.5-7.5-4.140625 0-7.5 3.355469-7.5 7.5v102.898438c0 22.421874 18.242188 40.664062 40.667969 40.664062h200.085938c22.421874 0 40.664062-18.242188 40.664062-40.664062v-323.125c0-4.144532-3.359375-7.5-7.5-7.5zm-33.164062 356.289062h-200.085938c-14.152344 0-25.667969-11.515625-25.667969-25.664062v-33.488282h251.417969v33.488282c0 14.148437-11.511719 25.664062-25.664062 25.664062zm0 0"/><path d="m66.464844 231.074219h-13.226563c-10.957031 0-19.867187 8.910156-19.867187 19.863281v13.226562c0 10.957032 8.914062 19.867188 19.867187 19.867188h13.226563c10.953125 0 19.863281-8.910156 19.863281-19.867188v-13.226562c0-10.953125-8.910156-19.863281-19.863281-19.863281zm4.863281 33.089843c0 2.683594-2.183594 4.867188-4.863281 4.867188h-13.226563c-2.683593 0-4.867187-2.183594-4.867187-4.867188v-13.226562c0-2.679688 2.183594-4.863281 4.867187-4.863281h13.226563c2.683594 0 4.863281 2.183593 4.863281 4.863281zm0 0"/><path d="m138.242188 231.074219h-13.226563c-10.953125 0-19.863281 8.910156-19.863281 19.863281v13.226562c0 10.957032 8.910156 19.867188 19.863281 19.867188h13.226563c10.957031 0 19.867187-8.910156 19.867187-19.867188v-13.226562c0-10.953125-8.910156-19.863281-19.867187-19.863281zm4.867187 33.089843c0 2.683594-2.183594 4.867188-4.867187 4.867188h-13.226563c-2.679687 0-4.863281-2.183594-4.863281-4.867188v-13.226562c0-2.679688 2.183594-4.863281 4.863281-4.863281h13.226563c2.683593 0 4.867187 2.183593 4.867187 4.863281zm0 0"/><path d="m66.464844 317.710938h-13.226563c-10.957031 0-19.867187 8.910156-19.867187 19.863281v13.230469c0 10.953124 8.914062 19.863281 19.867187 19.863281h13.226563c10.953125 0 19.863281-8.910157 19.863281-19.863281v-13.230469c0-10.953125-8.910156-19.863281-19.863281-19.863281zm4.863281 33.09375c0 2.679687-2.183594 4.863281-4.863281 4.863281h-13.226563c-2.683593 0-4.867187-2.183594-4.867187-4.863281v-13.230469c0-2.679688 2.183594-4.863281 4.867187-4.863281h13.226563c2.683594 0 4.863281 2.183593 4.863281 4.863281zm0 0"/><path d="m138.242188 317.710938h-13.226563c-10.953125 0-19.863281 8.910156-19.863281 19.863281v13.230469c0 10.953124 8.910156 19.863281 19.863281 19.863281h13.226563c10.957031 0 19.867187-8.910157 19.867187-19.863281v-13.230469c0-10.953125-8.910156-19.863281-19.867187-19.863281zm4.867187 33.09375c0 2.679687-2.183594 4.863281-4.867187 4.863281h-13.226563c-2.679687 0-4.863281-2.183594-4.863281-4.863281v-13.230469c0-2.679688 2.183594-4.863281 4.863281-4.863281h13.226563c2.683593 0 4.867187 2.183593 4.867187 4.863281zm0 0"/><path d="m199.152344 342.152344c12.722656 0 23.070312-10.351563 23.070312-23.070313v-25.277343c0-12.722657-10.347656-23.070313-23.070312-23.070313h-8.171875v-55.355469c0-13.695312-11.136719-24.835937-24.832031-24.835937h-5.101563c-8.765625-10.667969-13.554687-23.992188-13.554687-37.871094v-36.941406c0-8.1875-6.65625-14.851563-14.839844-14.851563h-73.820313c-8.1875 0-14.851562 6.660156-14.851562 14.851563v8.027343c0 4.144532 3.359375 7.5 7.5 7.5s7.5-3.355468 7.5-7.5v-7.878906h73.511719v36.789063c0 13.445312 3.59375 26.480469 10.304687 37.871093h-94.121094c6.273438-10.671874 9.847657-22.820312 10.269531-35.347656.140626-4.140625-3.101562-7.609375-7.242187-7.75-4.171875-.152344-7.609375 3.105469-7.75 7.246094-.441406 13.128906-5.214844 25.738281-13.515625 35.851562h-5.105469c-13.691406 0-24.832031 11.140626-24.832031 24.835938v182.132812c0 13.691407 11.140625 24.832032 24.832031 24.832032h5.101563c8.757812 10.660156 13.546875 23.988281 13.546875 37.878906v36.941406c0 8.183594 6.664062 14.839844 14.851562 14.839844h73.820313c8.183594 0 14.839844-6.65625 14.839844-14.839844v-5.988281c0-4.144531-3.359376-7.5-7.5-7.5-4.144532 0-7.5 3.355469-7.5 7.5v5.828125h-73.511719v-36.78125c0-13.453125-3.589844-26.488281-10.296875-37.875h94.113281c-6.710937 11.390625-10.308594 24.425781-10.308594 37.875 0 4.144531 3.359375 7.5 7.5 7.5 4.144531 0 7.5-3.355469 7.5-7.5 0-13.882812 4.792969-27.210938 13.558594-37.875h5.101563c13.691406 0 24.832031-11.140625 24.832031-24.835938v-55.355468zm0-56.421875c4.449218 0 8.070312 3.621093 8.070312 8.070312v25.277344c0 4.453125-3.621094 8.074219-8.070312 8.074219h-8.171875v-41.421875zm-23.171875 111.777343c0 5.421876-4.410157 9.835938-9.832031 9.835938h-8.378907c-.097656-.003906-.195312-.003906-.292969 0h-123.457031c-.113281-.003906-.222656-.003906-.332031 0h-8.355469c-5.421875 0-9.832031-4.414062-9.832031-9.835938v-182.132812c0-5.421875 4.410156-9.832031 9.832031-9.832031h140.816407c5.421874 0 9.832031 4.410156 9.832031 9.832031zm0 0"/></svg>