<svg width="595" height="487" viewBox="0 0 595 487" fill="none" xmlns="http://www.w3.org/2000/svg">
<rect width="580" height="298" rx="16" fill="#35068C"/>
<path d="M514.629 64.2898H515.967V61.5952H518.661V60.2578H515.967V57.5682H514.629V60.2578H511.94V61.5952H514.629V64.2898ZM524.944 55.8182H523.447L520.907 57.4787V58.9503L523.343 57.3594H523.403V66H524.944V55.8182ZM527.838 66H534.54V64.6825H529.956V64.608L531.979 62.4901C533.844 60.6058 534.376 59.706 534.376 58.5675C534.376 56.9318 533.043 55.679 531.124 55.679C529.22 55.679 527.828 56.9119 527.828 58.7713H529.295C529.29 57.6776 529.996 56.9616 531.094 56.9616C532.129 56.9616 532.914 57.598 532.914 58.6122C532.914 59.5121 532.377 60.1584 531.283 61.3168L527.838 64.8864V66ZM539.925 66.1392C541.973 66.1392 543.435 64.6925 543.43 62.7088C543.435 60.7401 542.063 59.3082 540.208 59.3082C539.453 59.3082 538.752 59.5966 538.354 59.9844H538.294L538.617 57.1357H542.938V55.8182H537.34L536.768 60.9489L538.175 61.1577C538.558 60.8146 539.244 60.581 539.86 60.581C541.068 60.5909 541.943 61.4957 541.943 62.7386C541.943 63.9616 541.093 64.8466 539.925 64.8466C538.94 64.8466 538.16 64.2202 538.08 63.3452H536.589C536.649 64.9659 538.055 66.1392 539.925 66.1392ZM550.7 64.0909C550.705 65.2393 551.426 66.2088 552.773 66.2088C554.106 66.2088 554.837 65.2393 554.837 64.0909V63.554C554.837 62.4006 554.126 61.4361 552.773 61.4361C551.446 61.4361 550.705 62.4055 550.7 63.554V64.0909ZM545.58 58.2642C545.58 59.4126 546.305 60.3821 547.653 60.3821C548.98 60.3821 549.716 59.4176 549.711 58.2642V57.7273C549.716 56.5739 549 55.6094 547.653 55.6094C546.33 55.6094 545.58 56.5739 545.58 57.7273V58.2642ZM545.997 66H547.185L554.185 55.8182H552.997L545.997 66ZM551.859 63.554C551.864 62.9822 552.112 62.4304 552.773 62.4304C553.46 62.4304 553.673 62.9822 553.673 63.554V64.0909C553.673 64.6626 553.44 65.2145 552.773 65.2145C552.097 65.2145 551.864 64.6577 551.859 64.0909V63.554ZM546.743 57.7273C546.743 57.1605 546.991 56.6037 547.653 56.6037C548.339 56.6037 548.553 57.1555 548.553 57.7273V58.2642C548.553 58.8359 548.319 59.3878 547.653 59.3878C546.977 59.3878 546.743 58.8359 546.743 58.2642V57.7273Z" fill="#42FFFF"/>
<path d="M116.375 87.1392C118.622 87.1392 119.915 85.2351 119.915 81.9091C119.915 78.608 118.602 76.679 116.375 76.679C114.148 76.679 112.835 78.608 112.835 81.9091C112.835 85.2351 114.128 87.1392 116.375 87.1392ZM116.375 86.0455C114.893 86.0455 114.028 84.5589 114.028 81.9091C114.028 79.2642 114.903 77.7528 116.375 77.7528C117.847 77.7528 118.722 79.2642 118.722 81.9091C118.722 84.5589 117.857 86.0455 116.375 86.0455ZM122.464 87.0795C122.956 87.0795 123.358 86.6768 123.358 86.1847C123.358 85.6925 122.956 85.2898 122.464 85.2898C121.971 85.2898 121.569 85.6925 121.569 86.1847C121.569 86.6768 121.971 87.0795 122.464 87.0795ZM128.55 87.1392C130.797 87.1392 132.089 85.2351 132.089 81.9091C132.089 78.608 130.777 76.679 128.55 76.679C126.322 76.679 125.01 78.608 125.01 81.9091C125.01 85.2351 126.302 87.1392 128.55 87.1392ZM128.55 86.0455C127.068 86.0455 126.203 84.5589 126.203 81.9091C126.203 79.2642 127.078 77.7528 128.55 77.7528C130.021 77.7528 130.896 79.2642 130.896 81.9091C130.896 84.5589 130.031 86.0455 128.55 86.0455ZM137.44 87.1392C139.687 87.1392 140.979 85.2351 140.979 81.9091C140.979 78.608 139.667 76.679 137.44 76.679C135.212 76.679 133.9 78.608 133.9 81.9091C133.9 85.2351 135.192 87.1392 137.44 87.1392ZM137.44 86.0455C135.958 86.0455 135.093 84.5589 135.093 81.9091C135.093 79.2642 135.968 77.7528 137.44 77.7528C138.911 77.7528 139.786 79.2642 139.786 81.9091C139.786 84.5589 138.921 86.0455 137.44 86.0455ZM146.33 87.1392C148.577 87.1392 149.869 85.2351 149.869 81.9091C149.869 78.608 148.557 76.679 146.33 76.679C144.102 76.679 142.79 78.608 142.79 81.9091C142.79 85.2351 144.082 87.1392 146.33 87.1392ZM146.33 86.0455C144.848 86.0455 143.983 84.5589 143.983 81.9091C143.983 79.2642 144.858 77.7528 146.33 77.7528C147.801 77.7528 148.676 79.2642 148.676 81.9091C148.676 84.5589 147.811 86.0455 146.33 86.0455ZM155.16 87.1392C157.193 87.1392 158.61 85.951 158.62 84.2955C158.61 83.0078 157.75 81.9141 156.651 81.7102V81.6506C157.606 81.402 158.232 80.4673 158.242 79.3835C158.232 77.8324 156.93 76.679 155.16 76.679C153.37 76.679 152.068 77.8324 152.077 79.3835C152.068 80.4673 152.694 81.402 153.668 81.6506V81.7102C152.55 81.9141 151.69 83.0078 151.7 84.2955C151.69 85.951 153.107 87.1392 155.16 87.1392ZM155.16 86.0455C153.763 86.0455 152.903 85.3295 152.913 84.2358C152.903 83.0874 153.852 82.267 155.16 82.267C156.448 82.267 157.397 83.0874 157.407 84.2358C157.397 85.3295 156.537 86.0455 155.16 86.0455ZM155.16 81.2131C154.046 81.2131 153.261 80.517 153.271 79.4631C153.261 78.429 154.016 77.7528 155.16 77.7528C156.283 77.7528 157.039 78.429 157.049 79.4631C157.039 80.517 156.254 81.2131 155.16 81.2131ZM163.986 87.1392C166.234 87.1392 167.526 85.2351 167.526 81.9091C167.526 78.608 166.214 76.679 163.986 76.679C161.759 76.679 160.447 78.608 160.447 81.9091C160.447 85.2351 161.739 87.1392 163.986 87.1392ZM163.986 86.0455C162.505 86.0455 161.64 84.5589 161.64 81.9091C161.64 79.2642 162.515 77.7528 163.986 77.7528C165.458 77.7528 166.333 79.2642 166.333 81.9091C166.333 84.5589 165.468 86.0455 163.986 86.0455ZM173.812 87H177.491C179.897 87 180.891 85.8267 180.891 84.2955C180.891 82.6847 179.778 81.8097 178.843 81.75V81.6506C179.718 81.4119 180.494 80.8352 180.494 79.5227C180.494 78.0312 179.499 76.8182 177.372 76.8182H173.812V87ZM175.045 85.9062V82.3665H177.551C178.883 82.3665 179.718 83.2614 179.718 84.2955C179.718 85.1903 179.102 85.9062 177.491 85.9062H175.045ZM175.045 81.2926V77.9119H177.372C178.724 77.9119 179.32 78.6278 179.32 79.5227C179.32 80.5966 178.445 81.2926 177.332 81.2926H175.045ZM182.501 77.9119H185.702V87H186.935V77.9119H190.137V76.8182H182.501V77.9119ZM199.949 80C199.571 77.9119 197.901 76.679 195.853 76.679C193.247 76.679 191.358 78.6875 191.358 81.9091C191.358 85.1307 193.247 87.1392 195.853 87.1392C197.901 87.1392 199.571 85.9062 199.949 83.8182H198.716C198.418 85.2301 197.205 85.9858 195.853 85.9858C194.003 85.9858 192.551 84.554 192.551 81.9091C192.551 79.2642 194.003 77.8324 195.853 77.8324C197.205 77.8324 198.418 78.5881 198.716 80H199.949Z" fill="#F2F2F2"/>
<path d="M113.517 63H120.974C124.895 63 126.983 60.9545 126.983 58.1761C126.983 55.5938 125.134 54.0341 123.148 53.9403V53.7699C124.963 53.3608 126.301 52.0739 126.301 50.0199C126.301 47.4034 124.358 45.5455 120.506 45.5455H113.517V63ZM117.207 59.983V55.3466H120.301C122.074 55.3466 123.173 56.3693 123.173 57.8097C123.173 59.1222 122.278 59.983 120.216 59.983H117.207ZM117.207 52.8494V48.5284H120.011C121.648 48.5284 122.577 49.3722 122.577 50.6335C122.577 52.0142 121.452 52.8494 119.943 52.8494H117.207ZM129.316 63H132.947V49.9091H129.316V63ZM131.14 48.2216C132.222 48.2216 133.109 47.3949 133.109 46.3807C133.109 45.375 132.222 44.5483 131.14 44.5483C130.066 44.5483 129.18 45.375 129.18 46.3807C129.18 47.3949 130.066 48.2216 131.14 48.2216ZM142.818 49.9091H140.355V46.7727H136.724V49.9091H134.935V52.6364H136.724V59.4545C136.707 62.0199 138.455 63.2898 141.088 63.179C142.026 63.1449 142.69 62.9574 143.057 62.8381L142.486 60.1364C142.307 60.1705 141.923 60.2557 141.582 60.2557C140.858 60.2557 140.355 59.983 140.355 58.9773V52.6364H142.818V49.9091ZM150.957 63.2557C154.443 63.2557 156.634 61.2102 156.804 58.2017H153.378C153.165 59.5994 152.244 60.3835 151 60.3835C149.304 60.3835 148.205 58.9602 148.205 56.4545C148.205 53.983 149.312 52.5682 151 52.5682C152.33 52.5682 153.182 53.446 153.378 54.75H156.804C156.651 51.7244 154.358 49.7386 150.94 49.7386C146.969 49.7386 144.514 52.4915 144.514 56.5057C144.514 60.4858 146.926 63.2557 150.957 63.2557ZM165.043 63.2557C169.015 63.2557 171.487 60.5369 171.487 56.5057C171.487 52.4489 169.015 49.7386 165.043 49.7386C161.072 49.7386 158.6 52.4489 158.6 56.5057C158.6 60.5369 161.072 63.2557 165.043 63.2557ZM165.06 60.4432C163.228 60.4432 162.29 58.7642 162.29 56.4801C162.29 54.196 163.228 52.5085 165.06 52.5085C166.859 52.5085 167.796 54.196 167.796 56.4801C167.796 58.7642 166.859 60.4432 165.06 60.4432ZM173.847 63H177.478V49.9091H173.847V63ZM175.671 48.2216C176.754 48.2216 177.64 47.3949 177.64 46.3807C177.64 45.375 176.754 44.5483 175.671 44.5483C174.597 44.5483 173.711 45.375 173.711 46.3807C173.711 47.3949 174.597 48.2216 175.671 48.2216ZM184.017 55.4318C184.026 53.7443 185.031 52.7557 186.497 52.7557C187.955 52.7557 188.832 53.7102 188.824 55.3125V63H192.455V54.6648C192.455 51.6136 190.665 49.7386 187.938 49.7386C185.994 49.7386 184.588 50.6932 184 52.2188H183.847V49.9091H180.386V63H184.017V55.4318Z" fill="white"/>
<path opacity="0.7" d="M203.148 60H207.858C210.523 60 211.83 58.642 211.83 56.8295C211.83 55.0682 210.58 54.0341 209.341 53.9716V53.858C210.477 53.5909 211.375 52.7955 211.375 51.3807C211.375 49.6477 210.125 48.3636 207.602 48.3636H203.148V60ZM205.256 58.2386V54.8295H207.58C208.881 54.8295 209.688 55.625 209.688 56.6648C209.688 57.5909 209.051 58.2386 207.523 58.2386H205.256ZM205.256 53.3125V50.1023H207.386C208.625 50.1023 209.267 50.7557 209.267 51.6534C209.267 52.6761 208.438 53.3125 207.341 53.3125H205.256ZM213.152 50.1307H216.749V60H218.839V50.1307H222.436V48.3636H213.152V50.1307ZM233.686 52.2898C233.328 49.7045 231.339 48.2045 228.76 48.2045C225.72 48.2045 223.43 50.4205 223.43 54.1818C223.43 57.9375 225.692 60.1591 228.76 60.1591C231.527 60.1591 233.362 58.3693 233.686 56.1477L231.561 56.1364C231.294 57.5 230.18 58.267 228.788 58.267C226.902 58.267 225.55 56.8523 225.55 54.1818C225.55 51.5568 226.891 50.0966 228.794 50.0966C230.209 50.0966 231.317 50.8977 231.561 52.2898H233.686Z" fill="#CFCFCF"/>
<circle cx="76" cy="60" r="20" fill="#C4C4C4"/>
<g clip-path="url(#clip0)">
<path d="M95.4018 64.8367C92.7296 75.5567 81.8686 82.0732 71.1639 79.4009C60.4436 76.7287 53.927 65.8681 56.5993 55.1635C59.2715 44.4435 70.1168 37.927 80.8371 40.5993C91.5418 43.2559 98.0742 54.1165 95.4018 64.8367Z" fill="url(#paint0_linear)"/>
<path d="M85.5223 57.508C85.9129 54.8517 83.8973 53.4142 81.116 52.4611L82.0223 48.8517L79.8348 48.3049L78.9598 51.8205C78.3817 51.6799 77.7879 51.5392 77.1942 51.4142L78.0692 47.883L75.8817 47.3361L74.991 50.9299C74.5067 50.8205 74.0379 50.7111 73.5848 50.6017V50.5861L70.5535 49.8361L69.9754 52.1799C69.9754 52.1799 71.6004 52.5549 71.5692 52.5705C72.4598 52.7892 72.616 53.383 72.5848 53.8517L71.5535 57.9611C71.616 57.9767 71.6942 57.9924 71.7879 58.0392C71.7098 58.0236 71.6317 58.008 71.5535 57.9767L70.1161 63.7267C70.0067 63.9924 69.7254 64.3986 69.1161 64.2424C69.1317 64.2736 67.5223 63.8517 67.5223 63.8517L66.4286 66.3674L69.2879 67.0861C69.8192 67.2267 70.3348 67.3517 70.8504 67.4924L69.9442 71.133L72.1317 71.6799L73.0379 68.0705C73.6317 68.2267 74.2254 68.383 74.7879 68.5236L73.8973 72.1174L76.0848 72.6642L76.991 69.0236C80.741 69.7267 83.5535 69.4455 84.7254 66.0549C85.6785 63.3361 84.6785 61.758 82.7098 60.7267C84.1629 60.3986 85.241 59.4455 85.5223 57.508ZM80.5067 64.5392C79.8348 67.258 75.241 65.7892 73.7567 65.4142L74.9598 60.5861C76.4442 60.9611 81.2254 61.6955 80.5067 64.5392ZM81.1942 57.4611C80.5692 59.9455 76.7567 58.6799 75.5223 58.3674L76.6161 53.9924C77.8504 54.3049 81.8348 54.883 81.1942 57.4611Z" fill="white"/>
</g>
<g filter="url(#filter0_b)">
<rect x="80" y="243" width="178" height="184" rx="16" fill="#491F98"/>
</g>
<g filter="url(#filter1_d)">
<rect x="371" y="255" width="169" height="84" rx="16" fill="#491F98"/>
<path d="M421.322 296.182H423.334L423.351 294.213C427.041 293.932 429.18 291.972 429.189 289.014C429.18 286.108 426.99 284.565 423.956 283.884L423.453 283.764L423.487 279.503C424.621 279.767 425.311 280.491 425.413 281.565H428.95C428.907 278.744 426.802 276.724 423.521 276.366L423.538 274.364H421.527L421.51 276.349C418.177 276.673 415.825 278.685 415.842 281.591C415.834 284.165 417.649 285.639 420.598 286.347L421.416 286.551L421.373 291.06C419.984 290.795 419.047 289.943 418.953 288.52H415.382C415.467 291.963 417.726 293.889 421.339 294.205L421.322 296.182ZM423.385 291.06L423.419 287.08C424.74 287.497 425.456 288.034 425.464 289.006C425.456 290.037 424.672 290.804 423.385 291.06ZM421.442 283.244C420.376 282.878 419.609 282.324 419.626 281.344C419.626 280.432 420.274 279.724 421.476 279.477L421.442 283.244ZM439.402 276.545H435.934L431.613 279.281V282.554L435.61 280.048H435.712V294H439.402V276.545ZM450.166 294.239C454.052 294.239 456.694 291.707 456.686 288.179C456.694 284.838 454.359 282.435 451.214 282.435C449.68 282.435 448.359 283.074 447.745 283.935H447.643L448.095 279.562H455.723V276.545H445.052L444.226 285.75L447.507 286.338C448.044 285.614 449.083 285.162 450.115 285.162C451.87 285.17 453.132 286.44 453.132 288.273C453.132 290.088 451.896 291.341 450.166 291.341C448.7 291.341 447.515 290.42 447.43 289.065H443.851C443.919 292.082 446.552 294.239 450.166 294.239ZM461.117 294.222C462.208 294.222 463.154 293.31 463.162 292.176C463.154 291.06 462.208 290.148 461.117 290.148C459.992 290.148 459.063 291.06 459.071 292.176C459.063 293.31 459.992 294.222 461.117 294.222ZM472.262 294.239C476.182 294.239 478.986 292.082 478.978 289.099C478.986 286.926 477.605 285.375 475.04 285.051V284.915C476.992 284.565 478.338 283.185 478.33 281.224C478.338 278.472 475.926 276.307 472.313 276.307C468.733 276.307 466.04 278.403 465.989 281.42H469.526C469.568 280.091 470.787 279.23 472.296 279.23C473.787 279.23 474.784 280.134 474.776 281.446C474.784 282.818 473.617 283.747 471.938 283.747H470.31V286.457H471.938C473.915 286.457 475.151 287.446 475.142 288.852C475.151 290.241 473.958 291.196 472.27 291.196C470.642 291.196 469.424 290.344 469.355 289.065H465.639C465.699 292.116 468.426 294.239 472.262 294.239ZM481.87 294H494.313V290.983H486.984V290.864L489.532 288.366C493.12 285.094 494.083 283.457 494.083 281.472C494.083 278.446 491.612 276.307 487.87 276.307C484.205 276.307 481.691 278.497 481.7 281.923H485.203C485.194 280.253 486.251 279.23 487.845 279.23C489.379 279.23 490.521 280.185 490.521 281.719C490.521 283.108 489.669 284.062 488.083 285.588L481.87 291.341V294Z" fill="white"/>
<path d="M404.609 319H406.018V314.75H408.564C411.274 314.75 412.496 313.102 412.496 311.045C412.496 308.989 411.274 307.364 408.541 307.364H404.609V319ZM406.018 313.5V308.614H408.496C410.388 308.614 411.109 309.648 411.109 311.045C411.109 312.443 410.388 313.5 408.518 313.5H406.018ZM414.744 319H416.085V313.477C416.085 312.295 417.017 311.432 418.289 311.432C418.647 311.432 419.017 311.5 419.107 311.523V310.159C418.954 310.148 418.602 310.136 418.403 310.136C417.357 310.136 416.448 310.727 416.13 311.591H416.039V310.273H414.744V319ZM420.857 319H422.198V310.273H420.857V319ZM421.539 308.818C422.062 308.818 422.493 308.409 422.493 307.909C422.493 307.409 422.062 307 421.539 307C421.016 307 420.584 307.409 420.584 307.909C420.584 308.409 421.016 308.818 421.539 308.818ZM428.359 319.182C430.291 319.182 431.564 318 431.791 316.455H430.45C430.2 317.409 429.405 317.977 428.359 317.977C426.768 317.977 425.746 316.659 425.746 314.636C425.746 312.659 426.791 311.364 428.359 311.364C429.541 311.364 430.246 312.091 430.45 312.886H431.791C431.564 311.25 430.177 310.159 428.337 310.159C425.973 310.159 424.405 312.023 424.405 314.682C424.405 317.295 425.905 319.182 428.359 319.182ZM437.57 319.182C439.343 319.182 440.639 318.295 441.048 316.977L439.752 316.614C439.411 317.523 438.622 317.977 437.57 317.977C435.997 317.977 434.911 316.96 434.849 315.091H441.184V314.523C441.184 311.273 439.252 310.159 437.434 310.159C435.07 310.159 433.502 312.023 433.502 314.705C433.502 317.386 435.048 319.182 437.57 319.182ZM434.849 313.932C434.94 312.574 435.9 311.364 437.434 311.364C438.889 311.364 439.82 312.455 439.82 313.932H434.849ZM448.044 319H449.385V310.273H448.044V319ZM448.726 308.818C449.248 308.818 449.68 308.409 449.68 307.909C449.68 307.409 449.248 307 448.726 307C448.203 307 447.771 307.409 447.771 307.909C447.771 308.409 448.203 308.818 448.726 308.818ZM453.342 313.75C453.342 312.227 454.285 311.364 455.569 311.364C456.813 311.364 457.569 312.176 457.569 313.545V319H458.91V313.455C458.91 311.227 457.722 310.159 455.955 310.159C454.637 310.159 453.819 310.75 453.41 311.636H453.296V310.273H452.001V319H453.342V313.75ZM469.476 319.182C471.157 319.182 471.726 318.136 472.021 317.659H472.18V319H473.476V307.364H472.135V311.659H472.021C471.726 311.205 471.203 310.159 469.498 310.159C467.294 310.159 465.771 311.909 465.771 314.659C465.771 317.432 467.294 319.182 469.476 319.182ZM469.657 317.977C467.976 317.977 467.112 316.5 467.112 314.636C467.112 312.795 467.953 311.364 469.657 311.364C471.294 311.364 472.157 312.682 472.157 314.636C472.157 316.614 471.271 317.977 469.657 317.977ZM479.823 319.182C482.187 319.182 483.778 317.386 483.778 314.682C483.778 311.955 482.187 310.159 479.823 310.159C477.459 310.159 475.868 311.955 475.868 314.682C475.868 317.386 477.459 319.182 479.823 319.182ZM479.823 317.977C478.028 317.977 477.209 316.432 477.209 314.682C477.209 312.932 478.028 311.364 479.823 311.364C481.618 311.364 482.437 312.932 482.437 314.682C482.437 316.432 481.618 317.977 479.823 317.977ZM487.325 307.364H485.984V319H487.325V307.364ZM491.282 307.364H489.941V319H491.282V307.364ZM496.466 319.205C497.989 319.205 498.785 318.386 499.057 317.818H499.125V319H500.466V313.25C500.466 310.477 498.353 310.159 497.239 310.159C495.921 310.159 494.421 310.614 493.739 312.205L495.012 312.659C495.307 312.023 496.006 311.341 497.285 311.341C498.518 311.341 499.125 311.994 499.125 313.114V313.159C499.125 313.807 498.466 313.75 496.875 313.955C495.256 314.165 493.489 314.523 493.489 316.523C493.489 318.227 494.807 319.205 496.466 319.205ZM496.671 318C495.603 318 494.83 317.523 494.83 316.591C494.83 315.568 495.762 315.25 496.807 315.114C497.375 315.045 498.898 314.886 499.125 314.614V315.841C499.125 316.932 498.262 318 496.671 318ZM503.074 319H504.415V313.477C504.415 312.295 505.347 311.432 506.619 311.432C506.977 311.432 507.347 311.5 507.437 311.523V310.159C507.284 310.148 506.932 310.136 506.733 310.136C505.687 310.136 504.778 310.727 504.46 311.591H504.369V310.273H503.074V319Z" fill="#F2F2F2"/>
</g>
<g filter="url(#filter2_d)">
<rect x="80" y="243" width="178" height="184" rx="16" fill="#491F98"/>
<path d="M102.631 359.341H105.682V354.832H110.19V351.781H105.682V347.273H102.631V351.781H98.1222V354.832H102.631V359.341ZM113.954 362H117.764L125.008 347.605V344.545H112.761V347.562H121.19V347.682L113.954 362ZM133.918 362.239C137.805 362.239 140.447 359.707 140.438 356.179C140.447 352.838 138.111 350.435 134.967 350.435C133.432 350.435 132.111 351.074 131.498 351.935H131.395L131.847 347.562H139.475V344.545H128.805L127.978 353.75L131.259 354.338C131.796 353.614 132.836 353.162 133.867 353.162C135.623 353.17 136.884 354.44 136.884 356.273C136.884 358.088 135.648 359.341 133.918 359.341C132.452 359.341 131.268 358.42 131.182 357.065H127.603C127.671 360.082 130.305 362.239 133.918 362.239ZM152.806 358.727C152.814 360.824 154.153 362.605 156.65 362.605C159.121 362.605 160.502 360.824 160.493 358.727V357.807C160.502 355.693 159.155 353.929 156.65 353.929C154.187 353.929 152.814 355.71 152.806 357.807V358.727ZM143.849 348.739C143.857 350.835 145.195 352.599 147.684 352.599C150.164 352.599 151.545 350.852 151.536 348.739V347.818C151.545 345.705 150.198 343.94 147.684 343.94C145.246 343.94 143.857 345.705 143.849 347.818V348.739ZM144.684 362H146.908L158.908 344.545H156.684L144.684 362ZM155.286 357.807C155.295 356.972 155.627 356.111 156.65 356.111C157.724 356.111 158.005 356.972 157.996 357.807V358.727C158.005 359.562 157.689 360.406 156.65 360.406C155.61 360.406 155.295 359.537 155.286 358.727V357.807ZM146.346 347.818C146.354 347.009 146.67 346.122 147.684 346.122C148.758 346.122 149.047 346.983 149.039 347.818V348.739C149.047 349.574 148.724 350.418 147.684 350.418C146.678 350.418 146.354 349.574 146.346 348.739V347.818Z" fill="white"/>
<path d="M187.71 353.29L182.71 348.29C182.615 348.199 182.503 348.127 182.38 348.08C182.137 347.98 181.864 347.98 181.62 348.08C181.498 348.127 181.385 348.199 181.29 348.29L176.29 353.29C176.197 353.383 176.123 353.494 176.073 353.616C176.022 353.737 175.996 353.868 175.996 354C175.996 354.266 176.102 354.522 176.29 354.71C176.479 354.898 176.734 355.004 177 355.004C177.267 355.004 177.522 354.898 177.71 354.71L181 351.41V359C181 359.265 181.106 359.519 181.293 359.707C181.481 359.894 181.735 360 182 360C182.266 360 182.52 359.894 182.707 359.707C182.895 359.519 183 359.265 183 359V351.41L186.29 354.71C186.383 354.804 186.494 354.878 186.616 354.929C186.738 354.979 186.868 355.006 187 355.006C187.132 355.006 187.263 354.979 187.385 354.929C187.507 354.878 187.617 354.804 187.71 354.71C187.804 354.617 187.878 354.506 187.929 354.384C187.98 354.263 188.006 354.132 188.006 354C188.006 353.868 187.98 353.737 187.929 353.615C187.878 353.493 187.804 353.383 187.71 353.29Z" fill="#FD8589"/>
<path d="M103.773 390.273H105.136C105.074 388.517 103.455 387.205 101.205 387.205C98.9773 387.205 97.2273 388.5 97.2273 390.455C97.2273 392.023 98.3636 392.955 100.182 393.477L101.614 393.886C102.841 394.227 103.932 394.659 103.932 395.818C103.932 397.091 102.705 397.932 101.091 397.932C99.7045 397.932 98.4773 397.318 98.3636 396H96.9091C97.0455 397.909 98.5909 399.205 101.091 399.205C103.773 399.205 105.295 397.727 105.295 395.841C105.295 393.659 103.227 392.955 102.023 392.636L100.841 392.318C99.9773 392.091 98.5909 391.636 98.5909 390.386C98.5909 389.273 99.6136 388.455 101.159 388.455C102.568 388.455 103.636 389.125 103.773 390.273ZM111.249 399.182C113.022 399.182 114.318 398.295 114.727 396.977L113.431 396.614C113.09 397.523 112.301 397.977 111.249 397.977C109.676 397.977 108.59 396.96 108.528 395.091H114.863V394.523C114.863 391.273 112.931 390.159 111.113 390.159C108.749 390.159 107.181 392.023 107.181 394.705C107.181 397.386 108.727 399.182 111.249 399.182ZM108.528 393.932C108.619 392.574 109.579 391.364 111.113 391.364C112.568 391.364 113.499 392.455 113.499 393.932H108.528ZM118.404 387.364H117.063V399H118.404V387.364ZM122.361 387.364H121.02V399H122.361V387.364ZM133.182 399.182C135.546 399.182 137.137 397.386 137.137 394.682C137.137 391.955 135.546 390.159 133.182 390.159C130.818 390.159 129.228 391.955 129.228 394.682C129.228 397.386 130.818 399.182 133.182 399.182ZM133.182 397.977C131.387 397.977 130.568 396.432 130.568 394.682C130.568 392.932 131.387 391.364 133.182 391.364C134.978 391.364 135.796 392.932 135.796 394.682C135.796 396.432 134.978 397.977 133.182 397.977ZM139.344 402.273H140.684V397.659H140.798C141.094 398.136 141.662 399.182 143.344 399.182C145.525 399.182 147.048 397.432 147.048 394.659C147.048 391.909 145.525 390.159 143.321 390.159C141.616 390.159 141.094 391.205 140.798 391.659H140.639V390.273H139.344V402.273ZM140.662 394.636C140.662 392.682 141.525 391.364 143.162 391.364C144.866 391.364 145.707 392.795 145.707 394.636C145.707 396.5 144.844 397.977 143.162 397.977C141.548 397.977 140.662 396.614 140.662 394.636ZM153.049 390.273H151.185V388.182H149.844V390.273H148.526V391.409H149.844V396.864C149.844 398.386 151.072 399.114 152.208 399.114C152.708 399.114 153.026 399.023 153.208 398.955L152.935 397.75C152.822 397.773 152.64 397.818 152.344 397.818C151.754 397.818 151.185 397.636 151.185 396.5V391.409H153.049V390.273ZM155.226 399H156.567V390.273H155.226V399ZM155.908 388.818C156.431 388.818 156.862 388.409 156.862 387.909C156.862 387.409 156.431 387 155.908 387C155.385 387 154.953 387.409 154.953 387.909C154.953 388.409 155.385 388.818 155.908 388.818ZM162.728 399.182C165.092 399.182 166.683 397.386 166.683 394.682C166.683 391.955 165.092 390.159 162.728 390.159C160.365 390.159 158.774 391.955 158.774 394.682C158.774 397.386 160.365 399.182 162.728 399.182ZM162.728 397.977C160.933 397.977 160.115 396.432 160.115 394.682C160.115 392.932 160.933 391.364 162.728 391.364C164.524 391.364 165.342 392.932 165.342 394.682C165.342 396.432 164.524 397.977 162.728 397.977ZM170.231 393.75C170.231 392.227 171.174 391.364 172.458 391.364C173.702 391.364 174.458 392.176 174.458 393.545V399H175.799V393.455C175.799 391.227 174.611 390.159 172.844 390.159C171.526 390.159 170.708 390.75 170.299 391.636H170.185V390.273H168.89V399H170.231V393.75Z" fill="#F2F2F2"/>
<path d="M100.07 273.455H97.4347V288H100.07V273.455ZM105.58 281.608C105.58 280.031 106.532 279.122 107.889 279.122C109.217 279.122 110.012 279.996 110.012 281.452V288H112.583V281.054C112.59 278.44 111.099 276.949 108.847 276.949C107.214 276.949 106.092 277.73 105.595 278.945H105.467V277.091H103.009V288H105.58V281.608ZM120.155 288.213C122.897 288.213 124.644 286.587 124.829 284.271H122.371C122.151 285.443 121.306 286.118 120.177 286.118C118.572 286.118 117.535 284.776 117.535 282.545C117.535 280.344 118.593 279.023 120.177 279.023C121.412 279.023 122.172 279.818 122.371 280.869H124.829C124.651 278.504 122.804 276.949 120.141 276.949C116.945 276.949 114.928 279.257 114.928 282.588C114.928 285.891 116.895 288.213 120.155 288.213ZM127.14 288H129.711V281.587C129.711 280.202 130.755 279.222 132.168 279.222C132.601 279.222 133.141 279.3 133.361 279.371V277.006C133.127 276.963 132.722 276.935 132.438 276.935C131.188 276.935 130.144 277.645 129.746 278.909H129.633V277.091H127.14V288ZM139.65 288.213C142.192 288.213 143.94 286.97 144.394 285.074L141.994 284.804C141.646 285.727 140.793 286.21 139.685 286.21C138.023 286.21 136.923 285.116 136.901 283.249H144.501V282.46C144.501 278.632 142.2 276.949 139.515 276.949C136.39 276.949 134.351 279.243 134.351 282.609C134.351 286.033 136.361 288.213 139.65 288.213ZM136.908 281.516C136.986 280.124 138.016 278.952 139.55 278.952C141.028 278.952 142.022 280.031 142.036 281.516H136.908ZM150.015 288.22C151.727 288.22 152.749 287.418 153.218 286.501H153.303V288H155.775V280.699C155.775 277.815 153.424 276.949 151.343 276.949C149.049 276.949 147.288 277.972 146.719 279.96L149.12 280.301C149.376 279.555 150.1 278.916 151.357 278.916C152.55 278.916 153.204 279.527 153.204 280.599V280.642C153.204 281.381 152.43 281.416 150.505 281.622C148.388 281.849 146.364 282.482 146.364 284.939C146.364 287.084 147.934 288.22 150.015 288.22ZM150.683 286.331C149.61 286.331 148.843 285.841 148.843 284.896C148.843 283.909 149.702 283.497 150.853 283.334C151.528 283.241 152.877 283.071 153.211 282.801V284.087C153.211 285.301 152.231 286.331 150.683 286.331ZM167.182 279.974C166.827 278.128 165.35 276.949 162.793 276.949C160.165 276.949 158.375 278.241 158.383 280.259C158.375 281.849 159.356 282.901 161.451 283.334L163.312 283.724C164.313 283.945 164.782 284.349 164.782 284.967C164.782 285.713 163.972 286.274 162.75 286.274C161.571 286.274 160.804 285.763 160.584 284.783L158.077 285.024C158.397 287.027 160.08 288.213 162.758 288.213C165.485 288.213 167.41 286.8 167.417 284.733C167.41 283.178 166.408 282.226 164.348 281.778L162.488 281.381C161.38 281.132 160.939 280.749 160.946 280.116C160.939 279.378 161.756 278.866 162.829 278.866C164.015 278.866 164.64 279.513 164.838 280.23L167.182 279.974ZM174.566 288.213C177.109 288.213 178.856 286.97 179.311 285.074L176.91 284.804C176.562 285.727 175.71 286.21 174.602 286.21C172.94 286.21 171.839 285.116 171.818 283.249H179.417V282.46C179.417 278.632 177.116 276.949 174.431 276.949C171.306 276.949 169.268 279.243 169.268 282.609C169.268 286.033 171.278 288.213 174.566 288.213ZM171.825 281.516C171.903 280.124 172.933 278.952 174.467 278.952C175.944 278.952 176.938 280.031 176.953 281.516H171.825ZM186.953 288H189.524V277.091H186.953V288ZM188.246 275.543C189.062 275.543 189.73 274.918 189.73 274.151C189.73 273.376 189.062 272.751 188.246 272.751C187.422 272.751 186.754 273.376 186.754 274.151C186.754 274.918 187.422 275.543 188.246 275.543ZM194.939 281.608C194.939 280.031 195.891 279.122 197.247 279.122C198.575 279.122 199.371 279.996 199.371 281.452V288H201.942V281.054C201.949 278.44 200.457 276.949 198.206 276.949C196.572 276.949 195.45 277.73 194.953 278.945H194.825V277.091H192.368V288H194.939V281.608ZM96.7955 303.663H101.291V316H103.905V303.663H108.401V301.455H96.7955V303.663ZM109.591 316H112.162V309.587C112.162 308.202 113.206 307.222 114.62 307.222C115.053 307.222 115.593 307.3 115.813 307.371V305.006C115.579 304.963 115.174 304.935 114.89 304.935C113.64 304.935 112.596 305.645 112.198 306.909H112.084V305.091H109.591V316ZM120.645 316.22C122.357 316.22 123.38 315.418 123.849 314.501H123.934V316H126.405V308.699C126.405 305.815 124.054 304.949 121.974 304.949C119.679 304.949 117.918 305.972 117.35 307.96L119.75 308.301C120.006 307.555 120.731 306.916 121.988 306.916C123.181 306.916 123.834 307.527 123.834 308.599V308.642C123.834 309.381 123.06 309.416 121.135 309.622C119.019 309.849 116.995 310.482 116.995 312.939C116.995 315.084 118.564 316.22 120.645 316.22ZM121.313 314.331C120.241 314.331 119.474 313.841 119.474 312.896C119.474 311.909 120.333 311.497 121.483 311.334C122.158 311.241 123.508 311.071 123.841 310.801V312.087C123.841 313.301 122.861 314.331 121.313 314.331ZM133.239 316.192C135.114 316.192 135.959 315.077 136.364 314.281H136.52V316H139.049V301.455H136.47V306.895H136.364C135.973 306.107 135.171 304.949 133.246 304.949C130.725 304.949 128.743 306.923 128.743 310.56C128.743 314.153 130.668 316.192 133.239 316.192ZM133.956 314.082C132.259 314.082 131.364 312.591 131.364 310.545C131.364 308.514 132.245 307.058 133.956 307.058C135.611 307.058 136.52 308.429 136.52 310.545C136.52 312.662 135.597 314.082 133.956 314.082ZM146.818 316.213C149.36 316.213 151.108 314.97 151.562 313.074L149.162 312.804C148.813 313.727 147.961 314.21 146.853 314.21C145.191 314.21 144.09 313.116 144.069 311.249H151.669V310.46C151.669 306.632 149.367 304.949 146.683 304.949C143.558 304.949 141.519 307.243 141.519 310.609C141.519 314.033 143.529 316.213 146.818 316.213ZM144.076 309.516C144.154 308.124 145.184 306.952 146.718 306.952C148.196 306.952 149.19 308.031 149.204 309.516H144.076Z" fill="white"/>
</g>
<path d="M89.801 169.562C77.8839 169.562 56 184.55 56 184.55V250H556V134.589C556 134.589 534.954 143.744 525.388 140.584C511.902 136.13 499.24 114.754 490.949 114.105C478.194 113.105 482.02 119.6 455.872 119.6C431 119.6 442.185 132.59 417.607 132.59C404.15 132.59 384.444 143.585 384.444 143.585H345.541C327.046 143.585 323.276 175.903 302.811 173.562C282.976 171.292 283.679 166.065 267.735 166.065C252.14 166.065 249.738 173.711 233.934 172.06C214.801 170.062 215.439 148.578 189.291 148.578C157.403 148.578 151.663 175.058 126.153 177.056C107.424 178.523 110.37 169.562 89.801 169.562Z" fill="url(#paint1_linear)"/>
<path d="M56 185C56 185 77.8839 170 89.801 170C110.37 170 107.424 178.969 126.153 177.5C151.663 175.5 157.403 149 189.291 149C215.439 149 214.801 170.5 233.934 172.5C249.738 174.152 252.14 166.5 267.735 166.5C283.679 166.5 282.976 171.732 302.811 174.003C323.276 176.346 327.046 144.003 345.541 144.003C361.139 144.003 384.444 144.003 384.444 144.003C384.444 144.003 404.15 133 417.607 133C442.185 133 431 120 455.872 120C482.02 120 478.194 113.5 490.949 114.5C499.24 115.15 511.902 136.543 525.388 141C534.954 144.162 556 135 556 135" stroke="#6EDCB5" stroke-width="4"/>
<defs>
<filter id="filter0_b" x="-170" y="-7" width="678" height="684" filterUnits="userSpaceOnUse" color-interpolation-filters="sRGB">
<feFlood flood-opacity="0" result="BackgroundImageFix"/>
<feGaussianBlur in="BackgroundImage" stdDeviation="125"/>
<feComposite in2="SourceAlpha" operator="in" result="effect1_backgroundBlur"/>
<feBlend mode="normal" in="SourceGraphic" in2="effect1_backgroundBlur" result="shape"/>
</filter>
<filter id="filter1_d" x="346" y="235" width="249" height="164" filterUnits="userSpaceOnUse" color-interpolation-filters="sRGB">
<feFlood flood-opacity="0" result="BackgroundImageFix"/>
<feColorMatrix in="SourceAlpha" type="matrix" values="0 0 0 0 0 0 0 0 0 0 0 0 0 0 0 0 0 0 127 0" result="hardAlpha"/>
<feOffset dx="15" dy="20"/>
<feGaussianBlur stdDeviation="20"/>
<feColorMatrix type="matrix" values="0 0 0 0 0.454902 0 0 0 0 0.458824 0 0 0 0 0.854902 0 0 0 0.15 0"/>
<feBlend mode="normal" in2="BackgroundImageFix" result="effect1_dropShadow"/>
<feBlend mode="normal" in="SourceGraphic" in2="effect1_dropShadow" result="shape"/>
</filter>
<filter id="filter2_d" x="55" y="223" width="258" height="264" filterUnits="userSpaceOnUse" color-interpolation-filters="sRGB">
<feFlood flood-opacity="0" result="BackgroundImageFix"/>
<feColorMatrix in="SourceAlpha" type="matrix" values="0 0 0 0 0 0 0 0 0 0 0 0 0 0 0 0 0 0 127 0" result="hardAlpha"/>
<feOffset dx="15" dy="20"/>
<feGaussianBlur stdDeviation="20"/>
<feColorMatrix type="matrix" values="0 0 0 0 0.454902 0 0 0 0 0.458824 0 0 0 0 0.854902 0 0 0 0.15 0"/>
<feBlend mode="normal" in2="BackgroundImageFix" result="effect1_dropShadow"/>
<feBlend mode="normal" in="SourceGraphic" in2="effect1_dropShadow" result="shape"/>
</filter>
<linearGradient id="paint0_linear" x1="75.9893" y1="39.9905" x2="75.9893" y2="79.9961" gradientUnits="userSpaceOnUse">
<stop stop-color="#F9AA4B"/>
<stop offset="1" stop-color="#F7931A"/>
</linearGradient>
<linearGradient id="paint1_linear" x1="306" y1="114" x2="306" y2="250" gradientUnits="userSpaceOnUse">
<stop stop-color="#6EDCB5" stop-opacity="0.4"/>
<stop offset="1" stop-color="#6EDCB5" stop-opacity="0"/>
</linearGradient>
<clipPath id="clip0">
<rect width="40" height="40" fill="white" transform="translate(56 40)"/>
</clipPath>
</defs>
</svg>
