<svg id="Capa_1" enable-background="new 0 0 16 16" height="16" viewBox="0 0 16 16" width="16" xmlns="http://www.w3.org/2000/svg"><g><path d="m409.213 410.742c25.146-14.666 47.2-40.328 48.589-72.056.572-13.07.107-24.591-3.334-38.788-1.169-4.822-7.766-5.491-9.873-.999-5.204 11.098-11.045 21.85-18.141 31.883-9.84 13.913-23.165 25.956-39.377 31.21z" fill="#dc8758"/><path d="m457.805 338.688c-1.388 31.723-23.446 57.39-48.588 72.054l-6.797-14.962c19.99-15.157 35.806-37.574 36.978-64.3.329-7.373.319-14.242-.37-21.379 1.944-3.681 3.794-7.414 5.563-11.198 2.108-4.494 8.71-3.825 9.882.997 3.435 14.19 3.897 25.718 3.332 38.788z" fill="#c86d36"/><path d="m177.616 375.399c-6.557-7.65-14.728-15.7-23.15-21.226-28.429-18.654-52.566.533-61.541 29.322-7.833 25.126-11.538 57.801-2.232 83.667h-11.133-3.189c-13.855 0-25.087 11.232-25.087 25.087v10.301c0 5.22 4.232 9.451 9.451 9.451h44.93 16.684 95.534z" fill="#e2e2e2"/><path d="m334.381 375.399c6.557-7.65 14.728-15.7 23.15-21.226 28.429-18.654 52.566.533 61.541 29.322 7.833 25.126 11.538 57.801 2.232 83.667h11.132 3.189c13.855 0 25.087 11.232 25.087 25.087v10.301c0 5.22-4.232 9.451-9.451 9.451h-44.93-16.684-95.534z" fill="#e2e2e2"/><path d="m421.567 466.383c-1.902-.535-3.897-.812-5.944-.812h-9.885c-2.165 0-3.691-2.088-3.066-4.161 7.528-24.985 3.815-54.121-3.605-77.919-5.296-16.977-15.867-30.623-29.482-35.117 23.055-7.095 41.811 10.509 49.482 35.117 7.755 24.885 11.467 57.154 2.5 82.892z" fill="#bfbfbf"/><path d="m460.715 492.245v10.304c0 5.224-4.237 9.45-9.45 9.45h-20.011c5.224 0 9.461-4.226 9.461-9.45v-10.304c0-10.941-7.023-21.245-16.803-25.081h11.712c13.862.001 25.091 11.23 25.091 25.081z" fill="#bfbfbf"/><path d="m367.716 467.161h-3.194-9.929c5.855-23.453 7.84-47.112 8.447-63.463.699-18.834-1.084-37.722-5.715-55.668-4.896-18.973-11.941-33.949-19.654-45.715-5.339-8.144-13.568-13.425-19.055-18.753-16.506-16.031-28.884-21.825-28.884-21.825h-67.465s-11.952 7.068-27.792 21.825c-6.049 5.636-14.386 9.921-20.308 19-7.65 11.728-14.631 26.628-19.493 45.468-4.631 17.946-6.414 36.834-5.715 55.668.607 16.351 2.592 40.009 8.447 63.463h-9.929-3.194c-13.852 0-25.081 11.229-25.081 25.081v19.758h273.598v-19.757c-.003-13.852-11.232-25.082-25.084-25.082z" fill="#f8f6f6"/><path d="m363.036 403.698c-.597 15.98-2.499 38.942-8.052 61.874-3.157-1.82-6.622-2.89-10.242-2.89h-2.342c-5.441 0-9.519-5.025-8.35-10.339 4.145-18.845 6.054-34.764 6.569-48.645.699-18.828-1.08-37.718-5.707-55.663-18.479-71.622-67.601-86.296-67.601-86.296h22.417s14.181 6.616 31.389 24.11c4.915 4.997 11.8 9.211 16.555 16.463 7.715 11.767 14.762 26.746 19.658 45.722 4.626 17.945 6.405 36.835 5.706 55.664z" fill="#ebebeb"/><path d="m392.795 492.245v19.754h-22.417v-19.754c0-9.286-5.296-19.415-12.967-25.081h10.304c13.851.001 25.08 11.23 25.08 25.081z" fill="#ebebeb"/><path d="m337.677 302.316c-11.743 5.368-23.97 9.718-36.495 12.864-14.674 3.702-29.749 5.738-44.824 5.779-13.892.031-29.636-2.067-43.179-5.337-9.934-2.396-19.682-5.522-29.194-9.265-.751-.298-5.121-1.892-9.82-3.794 12.072-18.52 25.821-29.132 35.518-34.86 30.561 6.221 62.069 6.221 92.63 0 9.656 5.707 23.323 16.248 35.364 34.613z" fill="#82aee3"/><path d="m337.677 302.316c-5.882 2.684-11.887 5.121-17.985 7.27-11.26-19.867-24.741-31.939-35.199-38.983 5.964-.73 11.908-1.697 17.821-2.9.298.175.596.35.895.535 1.553.936 3.198 2.005 4.926 3.208 2.71 1.888 5.326 3.909 7.839 6.047 5.639 4.797 10.769 10.226 15.381 16.041 1.182 1.491 2.355 3.044 3.506 4.668.711 1.003 1.388 1.974 2.067 2.992.245.372.492.742.749 1.122z" fill="#528fd8"/><path d="m174.042 7.447c-5.142-3.722-11.687-6.002-19.928-6.196-23.284-.55-48.362 22.828-60.452 40.911-27.366 40.935-47.063 88.99-44.617 138.169.551 11.08 2.299 22.35 7.515 32.141s14.373 17.958 25.318 19.767c6.276 1.037 12.746-.037 18.789-2.024 16.193-5.324 29.71-17.043 39.818-30.768 26.592-36.107 42.205-86.837 49.015-130.186 3.245-20.662 1.776-49.339-15.458-61.814z" fill="#ac5e2e"/><path d="m337.955 7.447c5.142-3.722 11.687-6.002 19.928-6.196 23.284-.55 48.362 22.828 60.452 40.911 27.366 40.935 47.063 88.99 44.617 138.169-.551 11.08-2.299 22.35-7.515 32.141s-14.373 17.958-25.318 19.767c-6.276 1.037-12.746-.037-18.789-2.024-16.193-5.324-29.71-17.043-39.818-30.768-26.592-36.107-42.205-86.837-49.014-130.186-3.246-20.662-1.777-49.339 15.457-61.814z" fill="#ac5e2e"/><path d="m462.957 180.328c-.555 11.085-2.303 22.356-7.517 32.145-5.224 9.79-14.376 17.954-25.317 19.764-5.769.956-11.702.134-17.317-1.563 8.401-3.229 15.342-10.17 19.62-18.201 5.214-9.789 6.962-21.06 7.517-32.145 2.447-49.174-17.255-97.227-44.618-138.164-10.016-14.972-28.906-33.564-48.331-39.21 3.25-1.018 6.869-1.604 10.89-1.707 23.281-.545 48.361 22.829 60.454 40.917 27.363 40.937 47.056 88.99 44.619 138.164z" fill="#9e5528"/><g><g><path d="m218.868 429.394v82.604h-15.425v-82.604c0-4.268 3.455-7.712 7.712-7.712 4.268 0 7.713 3.444 7.713 7.712z" fill="#e2e2e2"/></g><g><path d="m308.547 429.394v82.604h-15.425v-82.604c0-4.268 3.455-7.712 7.712-7.712 4.268 0 7.713 3.444 7.713 7.712z" fill="#e2e2e2"/></g></g><path d="m343.762 41.94c-18.509-23.06-56.934-42.984-87.763-41.895-3.645-.129-7.397.036-11.21.466-28.429 3.201-58.075 27.164-74.395 47.497-10.082 12.562-18.58 28.017-25.86 43.962-13.192 28.894-19.233 53.162-17.585 82.234.375 6.622-1.894 17.327-.306 24.044.998 4.217 2.214 8.365 3.661 12.425 8.259 23.169 23.939 41.596 43.512 54.688 3.782 2.53 9.765.426 13.695 2.342 20.76 10.124 41.421 16.502 65.745 15.759 26.478.809 51.657-3.14 74.64-15.759 2.127-1.168 8.27-.996 10.283-2.342 19.574-13.093 35.253-31.52 43.512-54.688 19.457-54.578-2.802-124.968-37.929-168.733z" fill="#f8f6f6"/><path d="m381.689 210.673c-18.283 51.292-72.928 79.345-125.691 77.73-3.733.113-7.476.082-11.209-.113 49.102-2.365 97.494-29.955 114.482-77.617 19.456-54.583-2.797-124.971-37.924-168.736-16.319-20.33-48.125-38.222-76.558-41.42 3.815-.432 7.558-.607 11.209-.473 30.829-1.09 69.257 18.839 87.766 41.893 35.128 43.765 57.381 114.153 37.925 168.736z" fill="#ebebeb"/><path d="m218.635 147.711c-20.672 28.236-58.258 50.536-91.988 50.536-12.41-52.477 9.077-115.797 41.589-156.308 16.324-20.328 48.12-38.228 76.537-41.434.109 2.002.241 4.003.317 6.006 2.237 58.777 3.837 99.838-26.455 141.2z" fill="#dc8758"/><path d="m218.63 147.71c-20.669 28.237-58.254 50.542-91.982 50.542-.925-3.897-1.656-7.856-2.221-11.867 29.543-5.131 59.755-24.988 77.514-49.236 28.937-39.508 28.772-78.748 26.746-133.413 5.399-1.532 10.797-2.632 16.083-3.229.113 1.995.247 4 .319 6.005 2.241 58.778 3.835 99.839-26.459 141.198z" fill="#c86d36"/><g><g><path d="m197.664 131.751c-4.259 0-7.712-3.453-7.712-7.712v-14.195c0-4.259 3.453-7.712 7.712-7.712s7.712 3.453 7.712 7.712v14.195c0 4.259-3.453 7.712-7.712 7.712z" fill="#5a5a5a"/></g><g><path d="m314.333 131.751c-4.26 0-7.712-3.453-7.712-7.712v-14.195c0-4.259 3.452-7.712 7.712-7.712s7.712 3.453 7.712 7.712v14.195c0 4.259-3.453 7.712-7.712 7.712z" fill="#5a5a5a"/></g></g><path d="m338.178 265.358c-23.749 15.899-53.247 23.927-82.179 23.045-28.933.882-58.43-7.146-82.179-23.045 4.777-7.018 8.93-14.62 12.786-21.994 7.513-14.342 14.917-29.428 26.395-41.085 5.501-5.59 11.954-10.229 19.338-12.965 18.317-6.809 43.87-5.025 59.699 6.829 15.621 11.686 24.532 30.37 33.353 47.22 3.856 7.375 8.009 14.977 12.787 21.995z" fill="#dc8758"/><path d="m338.181 265.359c-4.134 2.766-8.442 5.296-12.895 7.579-.514.267-1.028.524-1.553.782-2.456 1.204-4.862 2.392-7.394 3.404-2.148.858-4.256 1.73-6.417 2.54-5.272 1.977-10.682 3.537-16.134 4.864-2.345.571-4.707 1.058-7.075 1.491-2.622.48-5.228.895-7.867 1.244-3.78.5-7.483.814-11.301 1.018-3.846.206-7.702.236-11.548.123-2.466.072-5.016.067-7.435.031-.689-.01-1.368-.031-2.046-.062-.576-.021-1.152-.051-1.728-.082 31.744-1.532 63.2-13.605 86.059-34.839 2.295 4.05 4.722 8.071 7.334 11.907z" fill="#c86d36"/><path d="m281.26 219.966c-4.26 0-7.712 3.453-7.712 7.712v5.948c0 2.65-2.156 4.806-4.806 4.806s-4.807-2.156-4.807-4.806v-5.948c0-4.259-3.452-7.712-7.712-7.712-.076 0-.149.009-.224.011-.075-.002-.148-.011-.224-.011-4.259 0-7.712 3.453-7.712 7.712v5.948c0 2.65-2.156 4.806-4.806 4.806-2.651 0-4.807-2.156-4.807-4.806v-5.948c0-4.259-3.453-7.712-7.712-7.712s-7.712 3.453-7.712 7.712v5.948c0 11.155 9.076 20.231 20.231 20.231 4.827 0 9.261-1.705 12.743-4.537 3.482 2.832 7.915 4.537 12.743 4.537 11.156 0 20.231-9.076 20.231-20.231v-5.948c-.002-4.259-3.454-7.712-7.714-7.712z" fill="#444"/><ellipse cx="255.998" cy="181.105" fill="#5a5a5a" rx="22.417" ry="17.142"/><path d="m278.416 181.109c0 9.46-10.036 17.142-22.417 17.142-8.843 0-16.494-3.918-20.134-9.604 1.409.216 2.869.329 4.36.329 12.381 0 22.417-7.671 22.417-17.142 0-2.704-.823-5.255-2.283-7.538 10.293 1.553 18.057 8.484 18.057 16.813z" fill="#444"/></g></svg>